# xmcd CD database file generated by Grip 2.96
# 
# Track frame offsets:
#       150
#       12297
#       25595
#       38790
#       53047
#       65720
#       79457
#       90965
#       102740
#       117000
# 
# Disc length: 1754 seconds
# 
# Revision: 0
# Processed by: cddbd v1.4PL0 Copyright (c) Steve Scherf et al.
# Submitted via: Grip 2.96
# 
DISCID=7806d80a
DTITLE=Lightnin' Hopkins  - Lightnin' Hopkins Sings The Blues
DYEAR=1900
DGENRE=
TTITLE0=Contrary Mary
TTITLE1=Down To The River
TTITLE2=Bald Headed Woman
TTITLE3=Back Home Boogie
TTITLE4=New York Boogie
TTITLE5=Long Way From Texas
TTITLE6=My Heart To Weep
TTITLE7=Tap Dance Boogie
TTITLE8=Cemetary Blues
TTITLE9=Happy New Year
EXTD=
EXTT0=
EXTT1=
EXTT2=
EXTT3=
EXTT4=
EXTT5=
EXTT6=
EXTT7=
EXTT8=
EXTT9=
PLAYORDER=
